<?xml version="1.0" standalone="no"?>
<!DOCTYPE svg PUBLIC "-//W3C//DTD SVG 20010904//EN"
 "http://www.w3.org/TR/2001/REC-SVG-20010904/DTD/svg10.dtd">
<svg version="1.0" xmlns="http://www.w3.org/2000/svg"
 width="225.000000pt" height="225.000000pt" viewBox="0 0 225.000000 225.000000"
 preserveAspectRatio="xMidYMid meet">
<metadata>
Created by potrace 1.14, written by Peter Selinger 2001-2017
</metadata>
<g transform="translate(0.000000,225.000000) scale(0.100000,-0.100000)"
fill="#000000" stroke="none">
<path d="M950 2234 c-482 -92 -837 -438 -926 -902 -18 -95 -18 -319 0 -414 87
-455 440 -807 895 -894 98 -19 314 -19 412 0 463 89 825 458 899 918 20 124 8
361 -24 477 -107 383 -403 679 -787 787 -82 23 -116 27 -269 29 -96 2 -186 1
-200 -1z m307 -599 c65 -9 159 -25 208 -37 208 -48 431 -145 467 -202 26 -43
18 -93 -22 -128 -43 -39 -82 -36 -177 12 -186 96 -424 149 -703 157 -190 6
-330 -5 -468 -38 -102 -23 -141 -24 -168 -1 -52 41 -58 106 -16 152 31 34 118
60 282 84 133 19 451 20 597 1z m-156 -376 c206 -21 378 -68 546 -151 110 -53
143 -83 143 -130 0 -36 -48 -88 -81 -88 -12 0 -65 22 -118 49 -292 148 -674
190 -999 110 -71 -18 -88 -19 -114 -8 -73 30 -68 131 8 161 134 53 406 79 615
57z m149 -387 c176 -41 370 -129 392 -178 16 -34 0 -75 -34 -92 -25 -12 -36
-8 -130 37 -192 93 -375 129 -597 117 -69 -3 -162 -13 -206 -21 -161 -30 -151
-30 -179 -2 -32 32 -33 58 -3 92 22 26 82 42 249 65 108 15 411 4 508 -18z"/>
</g>
</svg>
